PathFileType	4	(X/Y/Z)	c:/Users/goper/Files/vsCode/490R/osim_files/A04/A04_SSWS_06.trc
DataRate	CameraRate	NumFrames	NumMarkers	Units                	OrigDataRate	OrigDataStartFrame	OrigNumFrames
120.00	120.00	7	36	mm	120.0	453	905
                Frame#	Time	LPSIS			LASIS			LTH1			LTH2			LTH3			LTH4			LLFE			LMFE			LSH1			LSH2			LSH3			LSH4			LLMAL			LMMAL			LCAL			LMTP5			LTOE			LMTP1			RPSIS			RASIS			RTH1			RTH2			RTH3			RTH4			RLFE			RMFE			RSH1			RSH2			RSH3			RSH4			RLMAL			RMMAL			RCAL			RMTP1			RTOE			RMTP5		
		X1	Y1	Z1	X2	Y2	Z2	X3	Y3	Z3	X4	Y4	Z4	X5	Y5	Z5	X6	Y6	Z6	X7	Y7	Z7	X8	Y8	Z8	X9	Y9	Z9	X10	Y10	Z10	X11	Y11	Z11	X12	Y12	Z12	X13	Y13	Z13	X14	Y14	Z14	X15	Y15	Z15	X16	Y16	Z16	X17	Y17	Z17	X18	Y18	Z18	X19	Y19	Z19	X20	Y20	Z20	X21	Y21	Z21	X22	Y22	Z22	X23	Y23	Z23	X24	Y24	Z24	X25	Y25	Z25	X26	Y26	Z26	X27	Y27	Z27	X28	Y28	Z28	X29	Y29	Z29	X30	Y30	Z30	X31	Y31	Z31	X32	Y32	Z32	X33	Y33	Z33	X34	Y34	Z34	X35	Y35	Z35	X36	Y36	Z36

453	3.76667	498.14539	1042.77014	399.62833	275.31607	1001.36658	490.53741	257.90607	669.32367	527.20343	251.60860	624.89355	527.64630	315.85956	654.86938	521.78906	302.78918	611.69104	519.94629	0.00000	0.00000	0.00000	230.44888	537.27826	377.18866	277.67514	423.23221	510.54245	265.68918	381.35663	507.01630	215.54390	432.23080	503.30258	214.61305	390.16409	500.42621	253.87643	106.04534	449.97449	226.80533	112.58923	369.47998	311.31183	65.11236	390.79834	113.14127	62.10624	492.94061	62.02610	80.35873	436.00879	75.62888	65.35442	390.15219	498.47961	1026.80859	293.81506	272.90295	990.50702	203.79898	376.00168	684.43011	153.07489	368.62500	642.48853	153.29854	314.41367	689.59760	150.39188	0.00000	0.00000	0.00000	325.06958	501.34195	167.87872	316.98724	492.62823	285.97955	540.62439	398.80124	182.86855	575.28632	366.93951	190.43117	506.69202	349.96710	168.18573	547.32349	325.57040	174.18619	719.34644	236.51854	183.74475	681.47974	202.83102	310.94812	792.50732	245.64455	272.26596	647.63196	72.68263	267.72781	620.53662	75.63237	218.62541	672.24023	90.57843	153.74208
454	3.77500	489.52673	1044.51855	400.83121	266.92313	1002.81989	491.79419	252.30934	669.43268	528.10095	246.60292	625.31720	528.48700	310.64047	655.48999	522.69775	297.87405	612.39618	520.82660	0.00000	0.00000	0.00000	225.87877	536.40594	378.17026	274.66089	423.49338	511.13861	263.92645	381.62616	507.82065	212.62155	432.01419	503.77789	211.96237	390.06268	500.93198	253.69389	106.09427	450.04422	226.63560	112.64516	369.49133	311.20410	65.22340	390.86606	112.99258	61.95547	492.91663	61.90366	80.12709	436.03015	75.51517	65.15583	390.12711	489.74442	1028.36401	295.05298	266.26855	991.63525	205.67947	359.41934	685.22253	153.62837	350.78717	643.33478	153.85611	297.39859	691.76208	151.58751	0.00000	0.00000	0.00000	304.75900	503.89319	168.52283	296.75778	495.55768	287.34421	520.40637	403.42706	183.59950	555.76300	372.04388	191.03871	486.89404	354.43774	169.08928	529.30402	332.34189	173.68553	700.30225	242.50055	184.06808	663.39911	209.06567	311.52036	773.95428	252.47963	271.97678	630.04413	78.59997	269.09479	602.69592	81.38995	220.23120	653.86517	96.59763	154.73965
455	3.78333	480.99680	1046.23560	402.10074	258.51437	1004.24023	492.88611	247.07707	669.62671	528.86292	241.78824	625.45184	529.08972	305.52753	656.05878	523.44299	293.94153	613.04742	521.89771	0.00000	0.00000	0.00000	222.12395	536.51703	378.67023	271.86905	423.85941	511.50977	261.38031	381.93912	508.19489	209.71783	431.92490	504.25595	210.08771	390.12915	501.56323	253.51465	106.19968	450.06644	226.84521	112.75659	369.45093	311.10028	65.38192	390.87689	112.91964	61.83329	492.90005	61.72984	79.90539	436.04709	75.42643	64.94202	390.13361	481.16098	1029.90454	296.23782	257.61789	993.32300	206.69269	343.17447	686.46191	154.61575	334.17853	645.05457	154.71223	281.49890	694.59399	152.40787	0.00000	0.00000	0.00000	284.97531	507.00931	169.05104	276.64948	498.61331	288.58591	499.64993	407.88361	184.15079	534.92157	376.62692	191.68532	466.55157	359.09372	170.09410	508.77188	336.92389	174.64893	680.27661	247.66786	184.39798	644.19263	214.88141	312.24869	754.23590	258.45636	271.48160	611.01648	83.85436	270.75409	583.04193	86.73205	222.39284	633.13165	102.24886	155.89799
456	3.79167	472.54608	1047.90479	403.33972	250.22028	1005.44287	493.92664	241.92845	669.87299	529.66479	237.68808	625.80347	529.63049	300.60678	656.56360	523.97516	288.77341	613.81293	522.43982	0.00000	0.00000	0.00000	218.02325	537.09540	379.18097	269.04465	424.21964	511.73853	258.85953	382.23734	508.41245	206.85884	431.86136	504.56445	207.12296	389.99014	501.62595	253.32196	106.35999	450.07764	226.66040	112.90738	369.44400	310.76266	65.47379	390.70697	112.80421	61.73634	492.87408	61.54506	79.69258	436.07285	75.28447	64.73159	390.13309	472.58499	1031.48376	297.45435	249.17699	995.27948	207.66208	327.96323	688.61395	155.95259	317.58542	647.29742	155.72888	266.32462	697.99078	153.10243	0.00000	0.00000	0.00000	265.49335	510.42349	169.76169	256.75699	502.11960	289.81577	478.74353	412.01462	184.53502	513.91553	380.58426	191.94220	445.75232	363.15292	170.92859	487.86053	340.97830	175.52496	659.89185	252.10133	184.75250	624.06512	219.88252	312.91791	733.84546	263.21350	271.13464	590.64856	88.59020	272.59375	562.14124	91.17825	224.58728	611.46118	106.50081	157.48398
457	3.80000	464.18982	1049.60059	404.64523	242.13913	1006.64001	494.69736	236.63873	669.89301	530.23383	232.51486	625.77209	530.07935	295.73782	657.18958	524.48749	284.15762	614.52771	522.92932	0.00000	0.00000	0.00000	214.39644	537.28735	379.32684	266.36029	424.68994	511.87677	256.48190	382.63132	508.51215	204.28020	431.85663	504.75534	204.62488	390.03296	501.68561	253.08755	106.54313	450.05939	226.41208	113.05834	369.46112	310.51297	65.70107	390.58575	112.67871	61.64482	492.83713	61.31923	79.46557	436.06580	75.10497	64.51235	390.16525	464.12970	1033.26562	298.69598	240.76831	997.60504	208.68091	313.25943	691.15308	157.64520	301.95990	649.99695	157.16586	251.96190	701.68610	153.77858	0.00000	0.00000	0.00000	246.21716	514.09253	170.30940	237.40617	505.99338	291.00531	457.59744	415.34729	184.61575	492.69073	383.95636	192.11105	424.22784	366.45166	171.63016	467.03931	344.37604	176.28894	638.01593	254.91107	185.13802	603.32166	223.97057	313.73972	712.88171	266.83447	270.93124	569.80597	92.52933	275.13712	540.67755	94.52470	226.82431	589.59570	109.12880	159.42093
458	3.80833	455.91287	1051.44421	405.87543	233.79121	1007.86261	495.53839	231.88274	670.36560	530.52649	228.66383	626.16803	530.23419	291.01813	657.75348	524.70093	279.84482	615.27209	523.20581	0.00000	0.00000	0.00000	211.13963	537.42505	379.37906	263.85883	425.24173	511.91364	254.27205	383.10721	508.47424	201.54301	431.96365	504.67462	202.34972	390.13278	501.74301	252.88055	106.78719	450.01733	226.17216	113.22343	369.48370	310.44217	66.11168	390.49243	112.58336	61.63364	492.80707	61.15340	79.30928	436.03055	74.99377	64.39254	390.11392	455.91360	1035.27869	299.87006	232.48358	1000.13318	209.55766	298.92670	693.76288	159.51216	286.81448	652.74640	158.80405	237.99379	705.55267	154.46475	0.00000	0.00000	0.00000	226.67899	517.90204	170.61478	218.20789	510.09958	291.99243	436.37012	417.94595	184.56953	471.43390	386.46008	192.09291	402.84885	369.04489	172.18474	445.50287	346.82339	176.86276	615.77411	256.45630	185.48433	582.02057	227.13341	314.61697	691.45337	269.07440	270.69641	547.74689	95.43124	277.44504	518.12732	97.14101	229.29485	567.13336	110.71046	161.56636
459	3.81667	447.58356	1053.31274	407.07840	226.08904	1008.67499	496.19037	227.09775	670.67523	530.71155	224.25116	626.39563	530.31879	286.43054	658.44562	524.82452	275.60269	616.01532	523.31250	0.00000	0.00000	0.00000	207.96033	537.48346	379.30740	261.54318	425.82004	511.80093	251.92763	383.31839	508.44864	199.12453	432.09009	504.63080	199.45683	388.99942	500.27722	252.70343	106.97309	449.97247	225.98749	113.32072	369.49634	310.35229	66.41360	390.42740	112.46418	61.59820	492.74493	61.02691	79.19884	436.01422	74.87792	64.30582	390.10431	447.60114	1037.30151	301.07471	224.40182	1002.80536	210.47234	284.76562	696.40295	161.55801	271.87930	655.74805	160.82599	224.76114	709.59528	154.42120	0.00000	0.00000	0.00000	207.86830	521.95892	170.70758	199.30907	514.52216	292.58066	415.35056	419.85638	184.37869	450.18906	388.16281	192.04764	381.11047	370.88913	172.64024	423.84811	348.63553	177.39520	593.73114	257.09219	185.82890	560.28351	229.34801	315.41724	669.75537	269.86804	270.39648	524.58521	97.43137	280.00085	494.85635	98.78892	231.93866	543.55463	111.24721	163.77112
